<?xml version="1.0" encoding="utf-8"?>
<!-- Generator: Adobe Illustrator 16.0.0, SVG Export Plug-In . SVG Version: 6.00 Build 0)  -->
<!DOCTYPE svg PUBLIC "-//W3C//DTD SVG 1.1//EN" "http://www.w3.org/Graphics/SVG/1.1/DTD/svg11.dtd">
<svg version="1.1" id="Capa_1" xmlns="http://www.w3.org/2000/svg" xmlns:xlink="http://www.w3.org/1999/xlink" x="0px" y="0px"
	 width="251.039px" height="134.898px" viewBox="0 0 251.039 134.898" enable-background="new 0 0 251.039 134.898"
	 xml:space="preserve">
<g>
	<rect x="3.565" y="4.14" fill="#0F69B4" width="57.067" height="126.482"/>
	<rect x="60.633" y="4.14" fill="#EB3C46" width="82.231" height="126.482"/>
	<path fill="#FFFFFF" d="M71.599,123.872c-0.835,0.395-1.531,0.569-2.312,0.569c-1.854,0-2.724-1.303-2.724-3.266
		c0-1.88,0.934-3.154,2.872-3.154c0.944,0,1.549,0.229,2.034,0.551l-0.514,0.908c-0.347-0.231-0.871-0.396-1.513-0.396
		c-1.109,0-1.613,0.844-1.613,2.071c0,1.461,0.531,2.259,1.576,2.259c0.403,0,0.789-0.083,1.082-0.221v-1.137h-0.854l-0.064-0.893
		h2.029V123.872z"/>
	<path fill="#FFFFFF" d="M76.61,122.095c0,1.529-0.772,2.347-2.111,2.347c-1.349,0-2.11-0.809-2.11-2.347
		c0-1.322,0.734-2.332,2.11-2.332C75.857,119.763,76.61,120.773,76.61,122.095 M75.38,122.095c0-1.084-0.321-1.462-0.88-1.462
		c-0.561,0-0.871,0.387-0.871,1.462c0,1.044,0.283,1.464,0.871,1.464C75.086,123.559,75.38,123.167,75.38,122.095"/>
	<path fill="#FFFFFF" d="M78.62,120.313c0.202-0.274,0.686-0.55,1.191-0.55c1.057,0,1.816,0.753,1.816,2.331
		c0,1.55-0.918,2.348-1.964,2.348c-0.641,0-1.017-0.249-1.302-0.634l-0.22,0.541h-0.641v-6.326h1.201v1.566L78.62,120.313z
		 M78.703,123.103c0.183,0.248,0.495,0.456,0.815,0.456c0.521,0,0.909-0.383,0.909-1.465c0-1.073-0.341-1.45-0.891-1.45
		c-0.303,0-0.632,0.157-0.834,0.357V123.103z"/>
	<path fill="#FFFFFF" d="M82.903,124.348v-3.611l-0.513-0.11v-0.771h1.705v4.492H82.903z M82.867,118.022h1.213v1.089h-1.213
		V118.022z"/>
	<path fill="#FFFFFF" d="M86.217,122.423c0,0.717,0.404,1.11,1.155,1.11c0.467,0,0.92-0.193,1.312-0.386l0.229,0.846
		c-0.376,0.199-0.974,0.449-1.688,0.449c-1.404,0-2.221-0.863-2.221-2.348c0-1.386,0.661-2.331,2.101-2.331
		c1.358,0,1.899,1.009,1.899,2.138v0.521H86.217L86.217,122.423z M87.052,120.644c-0.596,0-0.835,0.54-0.835,1.071h1.642
		C87.858,121.139,87.676,120.644,87.052,120.644"/>
	<path fill="#FFFFFF" d="M92.466,120.855c-0.146-0.046-0.348-0.072-0.561-0.072c-0.32,0-0.604,0.137-0.807,0.304v3.262h-1.192
		v-4.492h0.836c0.044,0.21,0.091,0.405,0.128,0.604h0.036c0.136-0.32,0.541-0.688,1.071-0.688c0.24,0,0.413,0.036,0.515,0.065
		C92.482,120.177,92.482,120.516,92.466,120.855"/>
	<path fill="#FFFFFF" d="M95.98,124.348v-2.669c0-0.679-0.26-0.998-0.808-0.998c-0.313,0-0.579,0.139-0.789,0.274v3.393h-1.202
		v-4.493h0.826l0.184,0.513c0.256-0.303,0.752-0.604,1.423-0.604c1.137,0,1.585,0.669,1.585,1.808v2.777H95.98L95.98,124.348z"/>
	<path fill="#FFFFFF" d="M102.22,122.095c0,1.529-0.772,2.347-2.112,2.347c-1.345,0-2.108-0.809-2.108-2.347
		c0-1.322,0.734-2.332,2.108-2.332C101.468,119.763,102.22,120.773,102.22,122.095 M100.99,122.095c0-1.084-0.323-1.462-0.883-1.462
		c-0.557,0-0.868,0.387-0.868,1.462c0,1.044,0.283,1.464,0.868,1.464C100.695,123.559,100.99,123.167,100.99,122.095"/>
	<path fill="#FFFFFF" d="M108.048,120.204c-0.076-0.257-0.114-0.485-0.114-0.824v-1.357h1.195v6.326h-0.974l-0.138-0.494
		c-0.181,0.275-0.614,0.588-1.191,0.588c-1.02,0-1.835-0.735-1.835-2.34c0-1.485,0.844-2.339,1.937-2.339
		C107.414,119.763,107.799,119.928,108.048,120.204 M107.934,120.884c-0.182-0.11-0.465-0.221-0.813-0.221
		c-0.569,0-0.928,0.387-0.928,1.433c0,1.071,0.342,1.475,0.91,1.475c0.301,0,0.604-0.146,0.831-0.385V120.884z"/>
	<path fill="#FFFFFF" d="M111.249,122.423c0,0.717,0.402,1.11,1.154,1.11c0.469,0,0.917-0.193,1.313-0.386l0.229,0.846
		c-0.377,0.199-0.974,0.449-1.688,0.449c-1.404,0-2.22-0.863-2.22-2.348c0-1.386,0.659-2.331,2.1-2.331
		c1.357,0,1.898,1.009,1.898,2.138v0.521H111.249L111.249,122.423z M112.083,120.644c-0.596,0-0.834,0.54-0.834,1.071h1.642
		C112.891,121.139,112.707,120.644,112.083,120.644"/>
	<path fill="#FFFFFF" d="M119.498,124.442c-1.743,0-2.669-1.173-2.669-3.236c0-1.9,0.917-3.184,2.669-3.184
		c0.843,0,1.604,0.184,2.109,0.521l-0.46,0.953c-0.319-0.237-0.88-0.421-1.522-0.421c-1.027,0-1.54,0.762-1.54,2.118
		c0,1.433,0.513,2.192,1.52,2.192c0.607,0,1.214-0.257,1.637-0.567l0.384,0.963C121.011,124.204,120.313,124.442,119.498,124.442"/>
	<path fill="#FFFFFF" d="M122.452,124.348v-6.326h1.201v1.66c0,0.312-0.1,0.622-0.116,0.694c0.253-0.311,0.63-0.613,1.271-0.613
		c1.295,0,1.661,0.67,1.661,1.809v2.777h-1.219v-2.669c0-0.119-0.019-0.211-0.065-0.273c-0.037-0.505-0.294-0.726-0.741-0.726
		c-0.313,0-0.578,0.14-0.791,0.274v3.394L122.452,124.348L122.452,124.348z"/>
	<path fill="#FFFFFF" d="M127.812,124.348v-3.611l-0.514-0.11v-0.771h1.705v4.492H127.812z M127.773,118.022h1.212v1.089h-1.212
		V118.022z"/>
	<path fill="#FFFFFF" d="M130.097,123.157v-5.135h1.183v5.07c0,0.376,0.228,0.432,0.724,0.432v0.846c0,0-0.348,0.072-0.66,0.072
		C130.426,124.441,130.097,123.956,130.097,123.157"/>
	<path fill="#FFFFFF" d="M133.822,122.423c0,0.717,0.402,1.11,1.153,1.11c0.469,0,0.919-0.193,1.312-0.386l0.229,0.846
		c-0.375,0.199-0.971,0.449-1.685,0.449c-1.404,0-2.221-0.863-2.221-2.348c0-1.386,0.661-2.331,2.102-2.331
		c1.357,0,1.898,1.009,1.898,2.138v0.521H133.822L133.822,122.423z M134.655,120.644c-0.596,0-0.833,0.54-0.833,1.071h1.641
		C135.463,121.139,135.28,120.644,134.655,120.644"/>
	<path fill="#FFFFFF" d="M33.29,21.492c0.128-0.102,0.391-0.33,0.178-0.759c-0.103-0.202-0.369-0.221-0.254-0.245
		c1.432-0.336,2.196-2.425,2.152-3.226c0.735,0.678,2.386,0.872,3.583-0.146c0.773-0.745,1.146-2.702-0.177-3.682
		c-0.676-0.5-1.875-0.543-2.626,0.037c-0.237-0.399-0.649-0.684-1.091-0.687c-0.006-0.14,0.019-1.083-0.54-1.693
		c-0.716-0.78-2.728-0.839-3.457,0.015c-1.444-0.362-3.32,0.304-3.216,2.566c-1.016-0.4-1.597-0.407-2.133-0.358
		c-0.506,0.047-1.179,0.499-1.412,0.808c-0.107,0.138-0.227,0.332-0.314,0.5c-0.164,0.325-0.292,0.752-0.246,1.228
		c0.076,0.805,0.473,1.482,1.057,1.805c0.807,0.441,1.828,0.381,2.194,0.323c0.278-0.062,0.579-0.163,0.896-0.496
		c0.094-0.095,0.162-0.247,0.299-0.25c-0.003,0.205-0.076,1.289,1.133,1.804c0.006,0.052,0.023,0.103,0.035,0.18
		c0.383,1.492,1.388,1.308,1.403,1.412c-0.444,0.27-0.257,0.661-0.151,0.863c0.68-0.208,1.183-0.237,1.343-0.237
		S32.61,21.283,33.29,21.492"/>
	<path fill="#FFFFFF" d="M36.686,25.997c-0.005-1.496,1.006-2.652,1.021-2.667c0.108-0.125,0.121-0.24,0.113-0.321
		c-0.021-0.139-0.128-0.233-0.15-0.235c-0.287-0.195-0.936-0.591-0.936-0.591l-0.053-0.045h-0.055c-0.07,0-0.123,0.042-0.212,0.109
		c-0.181,0.138-0.514,0.396-1.095,0.396c-0.103,0-0.209-0.01-0.32-0.024c-0.305-0.042-0.815-0.302-0.815-0.302
		c-0.166-0.087-0.373-0.178-0.458-0.216l-0.037-0.015c-0.833-0.346-1.543-0.373-1.742-0.373c-0.197,0-0.907,0.027-1.744,0.373
		l-0.038,0.015c-0.044,0.021-0.121,0.056-0.21,0.096l-0.507,0.241c-0.171,0.075-0.389,0.159-0.556,0.182
		c-0.109,0.015-0.215,0.024-0.321,0.024c-0.579,0-0.913-0.258-1.094-0.396c-0.089-0.067-0.146-0.109-0.212-0.109l-0.051,0.004
		l-0.03,0.021c-0.003,0.001-0.663,0.408-0.938,0.598c-0.043,0.02-0.149,0.109-0.17,0.25c-0.009,0.079,0.001,0.195,0.114,0.319
		c0.04,0.05,1.021,1.187,1.02,2.69c0.024,0.171,0.1,1.073-0.669,2.401c-0.036,0.067-0.882,1.613,0.043,2.969
		c0.005,0.013,0.696,1.274,2.719,1.274c0.164,0,1.657,0.028,2.171,0.981c0.022,0.038,0.262,0.419,0.358,0.608l0.115,0.229
		l0.114-0.229c0.098-0.186,0.333-0.565,0.368-0.617c0.506-0.944,1.998-0.972,2.164-0.972c1.994,0,2.706-1.255,2.706-1.255
		c0.947-1.39,0.06-2.98,0.054-2.988C36.587,27.094,36.661,26.191,36.686,25.997 M35.902,25.983l-2.608,1.87l0.999,2.951l-2.505-1.9
		l-2.501,1.9l0.996-2.951l-2.608-1.868l-0.01-0.003h3.221l0.902-2.986l0.904,2.986h3.217L35.902,25.983z"/>
	<path fill="#FFFFFF" d="M54.137,38.394c-0.326-0.396-1.194-0.199-1.194-0.199c0.468-1.387-0.815-1.756-0.815-1.756
		c-0.458-0.121-0.761-0.036-0.956,0.098c0,0-0.009,0.006-0.015,0.01c-0.003,0.004-0.008,0.005-0.008,0.009
		c-0.033,0.024-0.062,0.045-0.091,0.074c-0.115,0.122-0.188,0.285-0.188,0.462c0,0.367,0.301,0.667,0.668,0.667
		c0.143,0,0.274-0.046,0.383-0.12c0.133-0.094,0.229-0.235,0.265-0.396c0.18,0.113,0.245,0.311,0.245,0.311
		c0.374,1.183-0.956,1.607-0.956,1.607c-2.936,0.882-4.731-0.634-4.731-0.634l0.514-0.274c0.177-0.078,0.338-0.101,0.465-0.101
		c-0.006,0.024-0.01,0.056-0.01,0.087c0,0.316,0.264,0.576,0.583,0.576s0.582-0.26,0.582-0.576c-0.004-0.24-0.118-0.356-0.118-0.356
		c-0.343-0.518-1.528-0.175-1.528-0.175c0.395-0.974,0.042-1.673,0.042-1.673c-0.548-1.124-1.842-0.773-1.842-0.773
		c-0.451,0.137-0.545,0.539-0.545,0.539c-0.175,0.889,0.562,0.964,0.562,0.964c0.53,0.027,0.536-0.402,0.536-0.402
		c0.068-0.415-0.518-0.436-0.518-0.436c0.495-0.871,2.057,0.558,1.035,1.816c-0.106,0.127-0.205,0.042-0.205,0.042
		c-1.827-0.905-2.734-1.497-3.18-1.833c-0.043-0.498-0.479-0.749-0.396-0.882c0.071-0.029,0.33,0.1,0.474-0.116
		c0.055-0.079,0.173-0.867,0.271-1.424c1.619,0.739,2.999,0.514,3.277,0.424c0.142-0.059,0.255-0.16,0.258-0.372
		c0.026-0.616-1.57-4.239-1.614-5.519c0.754,0.374,1.22-0.79,1.356-1.145c1.014,0.462,1.361,9.866,2.143,10.183
		c0.39,0.158,0.544-0.482,0.579-0.601c1.255-4.192,1.298-8.273,1.215-9.642c-0.125-2.145-0.298-4.063-0.815-5.83
		c-0.317-1.086-0.932-3.305-2.366-3.607c-0.671-0.142-1.181,0.484-1.169,1.046c0.011,0.487,0.348,0.723,0.198,1.201
		c-0.18,0.313-0.359,0.654-0.447,1.004c-0.087,0.349,0.224,0.492,0.124,0.863c-0.454-0.068-0.681,0.33-1.395,0.147
		c0.465-0.215,0.471-1.541-0.099-1.768c-0.086-0.036-0.182-0.048-0.197-0.125c0,0,0.184-0.196,0.274-0.387
		c0.328-0.67,0.326-1.261,0.066-1.708c0.236,0.021,0.48-0.413,0.514-0.759l0.006,0.003c0.001-0.004,0.001-0.021,0.001-0.027v-0.002
		c0.005-0.091-0.011-0.394,0.126-0.677c0.044-0.093,0-0.199-0.079-0.24c-0.082-0.038-0.188-0.003-0.236,0.09
		c-0.14,0.297-0.476,0.131-0.333-0.166c0.042-0.095,0-0.198-0.081-0.238c-0.079-0.037-0.188-0.009-0.232,0.087
		c-0.135,0.285-0.461,0.125-0.326-0.16c0.043-0.092,0.002-0.199-0.077-0.236c-0.078-0.037-0.188-0.007-0.234,0.088
		c-0.139,0.294-0.479,0.131-0.337-0.162c0.043-0.099,0-0.203-0.08-0.242c-0.079-0.035-0.185-0.004-0.231,0.088
		c-0.148,0.312-0.254,0.442-0.41,0.566c-0.316,0.057-0.232,0.421-0.195,0.668c-0.593-0.128-1.041,0.324-1.058,0.729h-0.067
		c-0.49,0.012-0.959,0.266-0.923,0.717c0.018,0.257,0.318,0.576,0.433,0.58c0.053-0.017-0.026-0.272,0.229-0.288
		c0.232-0.014,0.578,0.186,0.621,0.405c0.051,0.252-0.156,0.859,0.646,0.948c0,0-0.007,0.123-0.018,0.253
		c-0.287-0.019-0.361-0.035-0.647,0.009c-0.505,0.081-1.199,0.366-1.369,0.868c-0.032,0.083-0.047,0.259-0.032,0.379
		c0.011,0.103,0.106,0.231,0.094,0.357c-0.01,0.061-0.117,0.188-0.158,0.227c-0.211,0.222-0.602,0.432-0.948,0.449
		c-0.383,0.02-0.756-0.227-0.904-0.433c-0.51-0.684,0.148-1.868,0.139-2.309c-0.028-1.175-1.512-0.475-2.099-0.169
		c-0.699,0.368-1.258,0.96-1.728,1.542c-0.258,0.319-0.549,0.721-0.691,1.06c-0.025,0.063-0.083,0.073-0.144,0.071
		c0.3,0.135,0.831,0.333,1.249,0.338c0,0,0.819,0.111,1.407-0.378c0,0,0.083-0.073,0.202-0.073c0.085,0,0.158,0.036,0.224,0.096
		c0.007,0.008,0.081,0.068,0.169,0.139c0.052,0.042,0.117,0.093,0.187,0.148c0.034,0.027,0.068,0.054,0.106,0.083
		c0.098,0.077,0.203,0.158,0.309,0.24c0.021,0.015,0.039,0.031,0.06,0.045c0.114,0.088,0.229,0.177,0.332,0.253
		c0.119,0.091,0.235,0.176,0.303,0.221l0.005,0.005c0.012,0.01,0.041,0.038,0.051,0.083c0.003,0.043-0.019,0.096-0.058,0.146
		c-0.002,0.003-0.063,0.071-0.158,0.19c-0.196,0.249-0.528,0.738-0.781,1.336c0.276,0.481,0.741,1.056,1.409,1.063
		c0.532,0.004,0.751-0.261,0.829-0.603c0.01,0.008,0.038,0.042,0.043,0.045c0.063-0.058,0.357,1.532,0.745,1.963
		c-0.362,0.168-0.925,0.739-0.619,2.309c-0.301-0.239-0.85-0.656-1.113-0.928c-0.158-0.326-0.468-1.092-1.354-1.166
		c0.129,0.394,0.314,0.837,0.601,1.329c0.005,0.013,0.546,1.01,0.378,2.141c0.371-0.381,0.314-1.427,0.314-1.427
		c0.014-0.014,0.066-0.029,0.083-0.035c0.075-0.005,0.447,0.721,1.092,0.874c0.839,1.433,1.781,2.343,2.691,2.919
		c-0.016,0.346,0.026,1.173-0.197,1.173c-0.717,0.159-1.379-0.324-2.01-0.291c-0.055-0.026-0.109-0.052-0.109-0.052
		c-2.72-1.309-6.304,1.501-6.902,2.047c-0.314,0.29-0.678-0.106-0.678-0.106c-0.214-0.271-0.495-0.393-0.771-0.362
		c-0.273-0.031-0.558,0.091-0.77,0.362c0,0-0.366,0.396-0.681,0.106c-0.565-0.518-3.813-3.032-6.468-2.174
		c-0.008-0.145-0.366-0.219-0.467-0.256c-0.21-0.06-0.395-0.227-0.527-0.292c-0.288-0.145-0.759-0.056-1.088-0.094
		c-0.129-0.02-0.307-0.086-0.422-0.155c-0.425-0.262-0.91-0.582-1.182-0.965c-0.042-0.062-0.149-0.208-0.17-0.232
		c-0.132-0.166-0.197-0.289-0.298-0.562c-0.145-0.524,0.081-1.087,0.157-1.618c0.057-0.393,0.043-0.418,0.079-0.84
		c1.687-0.58,2.375-1.843,2.768-2.518c0.038-0.052,0.143-0.267,0.143-0.267c0.075,0.011,0.148,0.017,0.229,0.02
		c0.675,0.004,1.129-0.372,1.866-0.282c0,0.041,0.099,0.351,0.578,0.547c0.014,0.484,0.049,0.882,0.233,1.258
		c0.039,0.065,0.09,0.121,0.127,0.175c0.314-0.777,0.398-1.383,0.407-1.748c-0.022-0.032-0.043-0.077-0.056-0.146
		c-0.158-0.821-0.542-1.046-0.901-1.253c-0.178-0.097-0.374-0.127-0.544-0.25c-0.262-0.18-0.54-0.373-0.715-0.71
		c0,0,0.087-0.081,0.179-0.197c0.472-0.493,0.707-1.218,0.879-2.013c0.359-0.493,1.36-0.3,1.742-0.229
		c0.097,0.01,0.263,0.048,0.34,0.108c0.108,0.074,0.133,0.245,0.283,0.309c0.157,0.064,0.335,0.017,0.527,0
		c0.07,0.08,0.108,0.19,0.159,0.292c0,0,0.052,0.092,0.151,0.197c0.467-0.01,1.096-0.257,1.359-0.391
		c-0.032-0.021-0.059-0.04-0.073-0.062c-0.21-0.267-0.525-0.563-0.82-0.61c-0.373-0.062-0.451-0.395-0.809-0.466
		c-0.09-0.024-0.406-0.072-0.514-0.033c-0.789,0.103-1.347-0.197-2.085-0.249c-0.701-0.05-0.725,0.429-0.979,0.825
		c-0.095,0.148-0.207,0.324-0.322,0.435c-0.194,0.187-0.419,0.193-0.654,0.372l-0.108-0.292c-0.064-0.243-0.155-0.495-0.314-0.732
		c-0.382-0.599-0.815-1.061-1.663-1.257c-0.162-0.065-0.186-0.075-0.293-0.161c-0.139-0.107-0.04-0.235,0-0.248
		c0.24-0.139,0.657-0.09,0.932-0.216c0.676-0.314,0.437-0.887,0.172-0.934c-0.339-0.063-0.954-0.225-1.074-0.296
		c-0.163-0.104-0.448-0.618-0.715-0.745c-0.297-0.08-0.194-0.564-0.469-0.67c-0.117-0.02-0.291,0.04-0.482,0.136
		c-0.012-0.101-0.084-0.652-0.388-0.832c-0.227-0.129-0.31,0.072-0.299,0.204c0.014,0.117,0.333,0.279,0.393,0.798
		c-0.055,0.035-0.107,0.065-0.164,0.104c-0.042-0.214-0.139-0.545-0.36-0.677c-0.227-0.131-0.309,0.072-0.297,0.202
		c0.009,0.113,0.292,0.258,0.38,0.697c-0.066,0.056-0.131,0.112-0.193,0.17c-0.453-0.125-0.575-0.433-0.689-0.454
		c-0.128-0.028-0.334,0.037-0.229,0.276c0.11,0.239,0.45,0.37,0.657,0.432c-0.046,0.05-0.084,0.099-0.125,0.148
		c-0.526-0.105-0.655-0.448-0.772-0.475c-0.13-0.023-0.338,0.041-0.23,0.277c0.153,0.334,0.749,0.463,0.806,0.475
		c-0.085,0.143-0.142,0.273-0.12,0.367c-0.41-0.047-1.136,0.172-0.998,0.655c0.135,0.098,0.618-0.297,1.062-0.077
		c0.295,0.456,0.766,0.475,0.87,0.559c0.164,0.13,0.19,0.364,0.267,0.577c0.131,0.394,0.406,0.709,0.636,1.059
		c0.252,0.381,0.514,0.783,0.778,1.118c0.032,0.09,0.061,0.186,0.045,0.327c-0.302,0.479-1.201,1.037-1.57,1.383
		c-0.372,0.351-3.896,3.031-4.339,4.201c-0.098,0.261-0.154,0.598-0.14,0.946c-0.216,0.115-0.688,0.302-0.836,0.09
		c-0.272-0.377,0.258-0.665,0.143-1.03c-0.056-0.141-0.261-0.235-0.391-0.141c-0.876,0.629-0.425,1.744,0.13,1.998
		c0.61,0.253,0.698-0.404,1.172-0.138c0.111,0.064,1.23,1.062,1.042,1.852c-0.012,0.042-0.055,0.155-0.076,0.185
		c-0.246,0.304-0.654,0.539-0.933,0.825c-0.582,0.368,0.552,2.686,0.458,3.876c-0.066,0.452,0.376,0.399,0.646,1.107
		c-0.276,0.009-0.546,0.077-0.685,0.283c0,0-0.115,0.117-0.115,0.356c0,0.316,0.259,0.576,0.579,0.576s0.582-0.26,0.582-0.576
		c0-0.031-0.002-0.063-0.007-0.087c0.127,0,0.291,0.023,0.466,0.101l0.514,0.274c0,0-1.797,1.517-4.73,0.634
		c0,0-1.331-0.424-0.958-1.607c0,0,0.065-0.198,0.247-0.311c0.035,0.161,0.131,0.302,0.263,0.396c0.109,0.074,0.24,0.12,0.383,0.12
		c0.367,0,0.665-0.299,0.665-0.667c0-0.177-0.068-0.34-0.184-0.462c-0.028-0.029-0.058-0.05-0.093-0.074
		c0-0.004-0.003-0.005-0.003-0.005c-0.01-0.008-0.014-0.011-0.014-0.011c-0.201-0.137-0.503-0.223-0.962-0.102
		c0,0-1.281,0.369-0.816,1.756c0,0-0.865-0.197-1.191,0.199c0,0-0.112,0.126-0.104,0.328v0.007v0.007
		c0.008,0.082,0.033,0.175,0.093,0.283c0.09,0.129,0.241,0.216,0.412,0.216c0.157,0,0.297-0.074,0.391-0.186
		c0-0.006,0.004-0.006,0.004-0.006c0.036-0.044,0.142-0.106,0.297,0.057c1.946,2.028,5.12,1.192,6.881-0.167
		c0,0,0.974-0.982,2.062-1.583c0.423,0.182,0.872,0.317,1.31,0.475c-0.033,0.631,0.1,1.535,0.804,2.587c0,0-0.497,0.917-1.335,0.413
		c0,0-0.618-0.477-0.093-1.052c0,0,0.353-0.293,0.505,0.074c-0.181,0.01-0.325,0.158-0.325,0.341c0,0.19,0.15,0.34,0.338,0.34
		c0.186,0,0.33-0.143,0.34-0.32c0.017-0.138,0.024-0.49-0.277-0.746c0,0-0.268-0.29-0.772-0.209c-0.738,0.115-1.155,1.66,0.303,2.3
		c0,0,1.146,0.522,1.737-0.333c0,0-0.009-0.125,0.212,0.089c1.214,1.176,3.923,0.834,4.998,0.035c0,0,0.273-0.173,0.571-0.314
		c0.014,0.452,0.383,0.823,0.844,0.823c0.464,0,0.842-0.382,0.842-0.847c0-0.416-0.3-0.758-0.697-0.83
		c-0.017-0.006-0.556-0.159-1.342,0.317c0,0-0.83,0.521-0.782,0.441c0.28-0.439,0.453-1.033,0.573-1.667
		c1.181,0.13,2.395,0.217,3.649,0.244c-0.015,0.365-0.064,0.812-0.207,1.152c0,0-0.442,0.184-0.453,0.497
		c0,0-0.049,0.228,0.345,0.544c0,0,0.287,0.318,0.37,0.564c0,0,0.023,0.343,0.496,0.343c0.035,0,0.063-0.004,0.09-0.01
		c0.029,0.006,0.06,0.01,0.092,0.01c0.473,0,0.495-0.343,0.495-0.343c0.084-0.247,0.371-0.564,0.371-0.564
		c0.394-0.317,0.343-0.544,0.343-0.544c-0.008-0.313-0.454-0.497-0.454-0.497c-0.14-0.341-0.19-0.787-0.205-1.151
		c1.256-0.026,2.47-0.112,3.65-0.242c0.119,0.634,0.292,1.226,0.573,1.665c0.05,0.08-0.781-0.441-0.781-0.441
		c-0.787-0.477-1.329-0.324-1.347-0.317c-0.396,0.072-0.693,0.415-0.693,0.83c0,0.465,0.377,0.847,0.841,0.847
		c0.461,0,0.832-0.371,0.844-0.823c0.299,0.141,0.571,0.314,0.571,0.314c1.073,0.799,3.786,1.141,5-0.035
		c0.221-0.213,0.21-0.089,0.21-0.089c0.592,0.855,1.739,0.333,1.739,0.333c1.456-0.64,1.038-2.185,0.303-2.3
		c-0.505-0.081-0.775,0.209-0.775,0.209c-0.3,0.255-0.294,0.607-0.276,0.746c0.009,0.178,0.156,0.32,0.338,0.32
		c0.188,0,0.341-0.15,0.341-0.34c0-0.183-0.146-0.331-0.325-0.341c0.151-0.367,0.504-0.074,0.504-0.074
		c0.527,0.575-0.094,1.052-0.094,1.052c-0.837,0.504-1.333-0.413-1.333-0.413c0.702-1.049,0.834-1.95,0.804-2.582
		c0.439-0.157,0.891-0.294,1.315-0.477c1.085,0.602,2.057,1.58,2.057,1.58c1.759,1.359,4.932,2.196,6.878,0.167
		c0.156-0.163,0.264-0.101,0.297-0.057c0,0,0.004,0,0.004,0.006c0.094,0.112,0.234,0.186,0.393,0.186
		c0.171,0,0.318-0.087,0.412-0.216c0.06-0.107,0.083-0.201,0.093-0.283v-0.004v-0.011C54.248,38.52,54.137,38.394,54.137,38.394
		 M17.817,37.784c0,0-0.096,0.084-0.202-0.042c-1.024-1.258,0.54-2.687,1.037-1.816c0,0-0.589,0.021-0.524,0.436
		c0,0,0.011,0.429,0.541,0.402c0,0,0.737-0.075,0.562-0.964c0,0-0.095-0.401-0.548-0.539c0,0-1.29-0.351-1.84,0.773
		c0,0-0.112,0.269-0.129,0.677c-0.15-0.121-0.32-0.216-0.503-0.246c-0.241-0.254-0.664-2.316-0.395-3.375
		c1.976-0.414,2.585-2.045,2.677-2.507c0.399,0.132,0.634,0.592,0.653,0.787c0.031,0.268-0.092,0.545,0.064,0.762
		c0.23,0.321,0.741,0.613,1.056,0.826c0.107,0.069,1.556,1.189,1.741,1.227c0.207,0.043,0.333-0.11,0.515-0.079
		c0.063,0.013,0.108,0.06,0.156,0.099c0,0,0.104,0.105,0.252,0.209c-0.38,0.251-0.875,0.613-1.531,1.195
		C21.4,35.608,20.899,36.257,17.817,37.784 M22.672,39.188c0,0-0.127,0.542-0.224,0.66c0,0-0.435-0.777-0.47-1.786
		c0.328,0.106,0.651,0.221,0.985,0.316C22.857,38.631,22.747,38.882,22.672,39.188 M26.54,41.03c0,0-2.063,0.809-3.482-0.65
		c0,0,0.101-0.914,0.485-1.869c1.15,0.293,2.345,0.514,3.58,0.673C27.039,39.969,26.867,40.981,26.54,41.03 M24.5,37.02
		c0.409-0.383,0.932-0.646,1.596-0.657c0,0,0.921-0.012,1.088,1.142C26.182,37.363,25.273,37.198,24.5,37.02 M26.557,35.713
		c-0.112,0.024-1.464,0.114-2.587,1.176c-0.619-0.155-1.179-0.31-1.615-0.448c0.091-0.173,0.182-0.347,0.317-0.517
		c0,0,1.749-2.121,4.886-0.929C27.619,35.017,27.419,35.523,26.557,35.713 M27.994,37.616c0.132-1.25,0.224-2.305,0.677-2.3
		c0,0,0.327,0.011,0.551,0.316c0.393,0.545,1.453,1.199,1.938,2.19C30.026,37.792,28.954,37.726,27.994,37.616 M32.956,37.822
		c0.483-0.991,1.545-1.645,1.939-2.19c0.223-0.306,0.55-0.316,0.55-0.316c0.454-0.004,0.547,1.051,0.679,2.301
		C35.161,37.727,34.091,37.793,32.956,37.822 M36.56,34.995c3.137-1.192,4.885,0.929,4.885,0.929
		c0.136,0.172,0.228,0.346,0.318,0.521c-0.436,0.138-0.994,0.292-1.613,0.447c-1.123-1.065-2.478-1.154-2.59-1.179
		C36.699,35.523,36.495,35.017,36.56,34.995 M38.023,36.363c0.665,0.011,1.188,0.274,1.597,0.66
		c-0.775,0.177-1.685,0.342-2.688,0.483C37.1,36.35,38.023,36.363,38.023,36.363 M37.577,41.03
		c-0.328-0.049-0.498-1.059-0.583-1.843c1.235-0.16,2.433-0.379,3.58-0.672c0.385,0.952,0.483,1.865,0.483,1.865
		C39.64,41.839,37.577,41.03,37.577,41.03 M41.669,39.847c-0.097-0.118-0.225-0.66-0.225-0.66c-0.077-0.304-0.186-0.554-0.292-0.808
		c0.335-0.093,0.657-0.206,0.983-0.313C42.101,39.074,41.669,39.847,41.669,39.847"/>
	<path fill="#FFFFFF" d="M74.126,18.444l-0.162-6.62h-0.047c-0.139,0.836-0.278,1.439-0.384,1.893l-1.115,4.728h-2.241l-1.068-4.728
		c-0.104-0.453-0.244-1.056-0.396-1.893h-0.047l-0.104,6.62h-1.395l0.303-7.84h2.613c0,0,0.86,3.949,1.312,6.481h0.034
		c0.523-2.521,1.546-6.481,1.546-6.481h2.567l0.302,7.84H74.126z"/>
	<path fill="#FFFFFF" d="M77.621,18.444v-4.6l-0.661-0.138v-0.953h2.171v5.691H77.621z M77.575,10.429h1.534v1.382h-1.534V10.429z"
		/>
	<path fill="#FFFFFF" d="M84.045,18.444v-3.379c0-0.86-0.325-1.267-1.022-1.267c-0.396,0-0.731,0.174-0.998,0.349v4.297h-1.523
		v-5.691h1.046l0.233,0.65c0.324-0.383,0.952-0.766,1.8-0.766c1.44,0,2.01,0.847,2.01,2.288v3.519H84.045z"/>
	<path fill="#FFFFFF" d="M87.297,18.444v-4.6l-0.662-0.138v-0.953h2.171v5.691H87.297z M87.25,10.429h1.534v1.382H87.25V10.429z"/>
	<path fill="#FFFFFF" d="M91.501,14.25c0,0.883,2.463,0.616,2.463,2.475c0,1.033-0.766,1.834-2.241,1.834
		c-0.687,0-1.325-0.197-1.708-0.417l0.313-1.057c0.268,0.186,0.825,0.395,1.348,0.395c0.5,0,0.837-0.279,0.837-0.627
		c0-1.022-2.429-0.685-2.429-2.625c0-0.836,0.639-1.591,2.173-1.591c0.592,0,1.208,0.115,1.603,0.278l-0.209,1.103
		c-0.384-0.174-0.872-0.29-1.37-0.29C91.757,13.728,91.501,13.926,91.501,14.25"/>
	<path fill="#FFFFFF" d="M97.263,18.56c-1.011,0-1.673-0.476-1.673-1.905v-2.822h-0.848v-1.08h0.848v-0.988l1.498-0.488v1.476h1.522
		v1.08h-1.522v2.787c0,0.396,0.198,0.651,0.604,0.651c0.313,0,0.639-0.093,0.871-0.209l0.232,1.116
		C98.459,18.374,97.867,18.56,97.263,18.56"/>
	<path fill="#FFFFFF" d="M100.781,16.005c0,0.906,0.511,1.405,1.464,1.405c0.582,0,1.174-0.221,1.673-0.476l0.29,1.069
		c-0.477,0.255-1.254,0.558-2.148,0.558c-1.754,0-2.799-1.092-2.799-2.974c0-1.753,0.848-2.95,2.672-2.95
		c1.718,0,2.393,1.277,2.393,2.706v0.662H100.781z M101.851,13.752c-0.754,0-1.069,0.685-1.069,1.358h2.08
		C102.861,14.378,102.641,13.752,101.851,13.752"/>
	<path fill="#FFFFFF" d="M108.703,14.019c-0.186-0.059-0.453-0.093-0.708-0.093c-0.407,0-0.767,0.174-1.022,0.384v4.134h-1.511
		v-5.691h1.057l0.164,0.766h0.035c0.173-0.406,0.685-0.871,1.357-0.871c0.303,0,0.535,0.046,0.662,0.081L108.703,14.019z"/>
	<path fill="#FFFFFF" d="M110.085,18.444v-4.6l-0.662-0.138v-0.953h2.173v5.691H110.085z M110.039,10.429h1.533v1.382h-1.533V10.429
		z"/>
	<path fill="#FFFFFF" d="M118.088,15.587c0,1.94-0.975,2.974-2.671,2.974c-1.707,0-2.672-1.022-2.672-2.974
		c0-1.673,0.93-2.95,2.672-2.95C117.136,12.636,118.088,13.914,118.088,15.587 M116.532,15.587c0-1.371-0.406-1.847-1.115-1.847
		s-1.104,0.488-1.104,1.847c0,1.325,0.36,1.858,1.104,1.858S116.532,16.946,116.532,15.587"/>
	<path fill="#FFFFFF" d="M125.464,13.194c-0.092-0.325-0.139-0.616-0.139-1.046v-1.719h1.509v8.014h-1.23l-0.175-0.626
		c-0.231,0.348-0.777,0.743-1.509,0.743c-1.29,0-2.324-0.929-2.324-2.962c0-1.882,1.069-2.961,2.451-2.961
		C124.662,12.636,125.149,12.845,125.464,13.194 M125.324,14.053c-0.232-0.139-0.592-0.278-1.033-0.278
		c-0.721,0-1.173,0.488-1.173,1.812c0,1.359,0.43,1.87,1.149,1.87c0.384,0,0.767-0.186,1.058-0.488L125.324,14.053L125.324,14.053z"
		/>
	<path fill="#FFFFFF" d="M129.505,16.005c0,0.906,0.513,1.405,1.465,1.405c0.581,0,1.173-0.221,1.673-0.476l0.289,1.069
		c-0.476,0.255-1.254,0.558-2.148,0.558c-1.755,0-2.799-1.092-2.799-2.974c0-1.753,0.847-2.95,2.671-2.95
		c1.719,0,2.393,1.277,2.393,2.706v0.662H129.505z M130.574,13.752c-0.755,0-1.069,0.685-1.069,1.358h2.079
		C131.585,14.378,131.364,13.752,130.574,13.752"/>
	<path fill="#FFFFFF" d="M70.456,29.505c-2.207,0-3.393-1.463-3.393-4.077c0-2.439,1.174-3.995,3.393-3.995
		c1.067,0,2.032,0.231,2.671,0.662l-0.581,1.231c-0.406-0.313-1.115-0.546-1.928-0.546c-1.301,0-1.951,0.918-1.951,2.637
		c0,1.812,0.65,2.741,1.928,2.741c0.767,0,1.533-0.324,2.068-0.72l0.487,1.231C72.372,29.203,71.489,29.505,70.456,29.505"/>
	<path fill="#FFFFFF" d="M74.358,29.389v-4.6l-0.662-0.139v-0.952h2.172v5.691H74.358z M74.312,21.375h1.533v1.382h-1.533V21.375z"
		/>
	<path fill="#FFFFFF" d="M78.551,26.95c0,0.906,0.511,1.405,1.464,1.405c0.581,0,1.173-0.22,1.672-0.476l0.291,1.069
		c-0.477,0.256-1.255,0.558-2.148,0.558c-1.754,0-2.8-1.092-2.8-2.974c0-1.753,0.848-2.95,2.672-2.95
		c1.719,0,2.393,1.278,2.393,2.707v0.662H78.551z M79.619,24.697c-0.754,0-1.068,0.685-1.068,1.359h2.079
		C80.63,25.323,80.41,24.697,79.619,24.697"/>
	<path fill="#FFFFFF" d="M86.774,29.389V26.01c0-0.86-0.326-1.267-1.022-1.267c-0.395,0-0.731,0.174-0.999,0.349v4.297h-1.521
		v-5.691h1.045l0.233,0.65c0.325-0.384,0.952-0.767,1.8-0.767c1.44,0,2.01,0.848,2.01,2.288v3.52H86.774z"/>
	<path fill="#FFFFFF" d="M94.092,29.006C93.766,29.18,93,29.505,92.14,29.505c-1.695,0-2.717-0.964-2.717-2.962
		c0-1.858,1.021-2.962,2.706-2.962c0.755,0,1.405,0.151,1.951,0.464l-0.395,1.034c-0.407-0.244-0.929-0.348-1.429-0.348
		c-0.79,0-1.29,0.534-1.29,1.812c0,1.29,0.477,1.812,1.301,1.812c0.593,0,1.174-0.221,1.545-0.43L94.092,29.006z"/>
	<path fill="#FFFFFF" d="M95.566,29.389v-4.6l-0.661-0.139v-0.952h2.171v5.691H95.566z M95.521,21.375h1.533v1.382h-1.533V21.375z"
		/>
	<path fill="#FFFFFF" d="M101.967,29.389l-0.209-0.673c-0.29,0.395-0.86,0.79-1.662,0.79c-1.138,0-1.904-0.731-1.904-1.823
		c0-1.057,0.778-1.684,2.149-1.684h1.196v-0.291c0-0.731-0.419-0.964-0.998-0.964c-0.675,0-1.244,0.174-1.709,0.383l-0.383-1.08
		c0.569-0.244,1.348-0.465,2.242-0.465c1.614,0,2.312,0.744,2.312,2.196v3.612H101.967z M101.537,26.904h-0.94
		c-0.628,0-0.919,0.302-0.919,0.732c0,0.522,0.279,0.836,0.849,0.836c0.359,0,0.73-0.163,1.011-0.384V26.904z"/>
	<path fill="#FFFFFF" d="M104.186,27.751h1.532v1.731c0,0.976-0.557,1.382-1.532,1.486v-0.79c0.209-0.046,0.359-0.244,0.359-0.79
		l-0.359-0.174V27.751z"/>
	<polygon fill="#FFFFFF" points="70.2,33.783 70.2,40.334 68.62,40.334 68.62,33.783 66.727,33.783 66.727,32.493 72.151,32.493 
		72.151,33.783 	"/>
	<path fill="#FFFFFF" d="M73.033,37.895c0,0.906,0.512,1.405,1.464,1.405c0.582,0,1.174-0.221,1.673-0.476l0.29,1.069
		c-0.476,0.255-1.254,0.557-2.148,0.557c-1.754,0-2.8-1.091-2.8-2.974c0-1.753,0.849-2.95,2.673-2.95
		c1.718,0,2.392,1.277,2.392,2.707v0.662H73.033z M74.103,35.642c-0.755,0-1.069,0.685-1.069,1.358h2.08
		C75.113,36.269,74.893,35.642,74.103,35.642"/>
	<path fill="#FFFFFF" d="M82.256,39.951c-0.325,0.175-1.091,0.499-1.951,0.499c-1.695,0-2.718-0.963-2.718-2.961
		c0-1.858,1.022-2.962,2.706-2.962c0.755,0,1.405,0.151,1.952,0.464l-0.396,1.035c-0.406-0.244-0.929-0.349-1.429-0.349
		c-0.79,0-1.29,0.534-1.29,1.812c0,1.29,0.477,1.812,1.302,1.812c0.592,0,1.173-0.221,1.545-0.43L82.256,39.951z"/>
	<path fill="#FFFFFF" d="M86.798,40.334v-3.379c0-0.86-0.325-1.267-1.021-1.267c-0.396,0-0.733,0.174-1,0.348v4.297h-1.522v-5.69
		H84.3l0.232,0.649c0.325-0.383,0.953-0.766,1.802-0.766c1.438,0,2.009,0.847,2.009,2.288v3.519H86.798z"/>
	<path fill="#FFFFFF" d="M94.695,37.477c0,1.94-0.976,2.974-2.671,2.974c-1.708,0-2.672-1.022-2.672-2.974
		c0-1.672,0.93-2.95,2.672-2.95C93.743,34.527,94.695,35.804,94.695,37.477 M93.14,37.477c0-1.371-0.406-1.847-1.115-1.847
		c-0.708,0-1.103,0.488-1.103,1.847c0,1.325,0.358,1.859,1.103,1.859S93.14,38.836,93.14,37.477"/>
	<path fill="#FFFFFF" d="M95.846,38.824V32.32h1.499v6.423c0,0.477,0.29,0.546,0.916,0.546v1.069c0,0-0.439,0.093-0.835,0.093
		C96.264,40.45,95.846,39.835,95.846,38.824"/>
	<path fill="#FFFFFF" d="M104.359,37.477c0,1.94-0.976,2.974-2.672,2.974c-1.706,0-2.671-1.022-2.671-2.974
		c0-1.672,0.929-2.95,2.671-2.95C103.406,34.527,104.359,35.804,104.359,37.477 M102.803,37.477c0-1.371-0.406-1.847-1.115-1.847
		c-0.708,0-1.103,0.488-1.103,1.847c0,1.325,0.359,1.859,1.103,1.859C102.432,39.336,102.803,38.836,102.803,37.477"/>
	<path fill="#FFFFFF" d="M110.655,34.643l-0.023,1.126c-0.267-0.012-0.686-0.069-1.068-0.198c0.255,0.233,0.522,0.523,0.569,0.895
		c0,1.394-1.383,1.952-2.347,1.952c-0.221,0-0.488-0.047-0.732-0.105c-0.174,0.058-0.278,0.162-0.278,0.313
		c0,0.616,3.612-0.104,3.612,2.033c0,1.336-1.277,2.067-2.707,2.067c-1.195,0-2.404-0.522-2.404-1.568
		c0-0.732,0.582-1.115,1.511-1.255c-0.708-0.082-1.417-0.301-1.417-0.964c0-0.476,0.441-0.824,1.08-0.871
		c-0.569-0.313-1.022-0.79-1.022-1.603c0-1.51,1.429-1.939,2.346-1.939C108.391,34.527,109.668,34.631,110.655,34.643
		 M107.554,40.009c-0.534,0.046-0.871,0.348-0.871,0.836c0,0.499,0.453,0.859,1.068,0.859c0.686,0,1.138-0.348,1.138-0.941
		C108.889,40.265,108.448,40.079,107.554,40.009 M108.785,36.454c0-0.674-0.568-0.847-1.012-0.847c-0.44,0-1.021,0.173-1.021,0.847
		c0,0.72,0.546,0.895,1.021,0.895C108.238,37.349,108.785,37.175,108.785,36.454"/>
	<path fill="#FFFFFF" d="M111.281,33.76l-0.15-0.871l2.939-0.825l0.196,1.115L111.281,33.76z M112.107,40.334v-4.6l-0.662-0.139
		v-0.952h2.172v5.69H112.107z"/>
	<path fill="#FFFFFF" d="M118.529,40.334l-0.209-0.673c-0.29,0.394-0.859,0.789-1.661,0.789c-1.137,0-1.904-0.731-1.904-1.823
		c0-1.057,0.777-1.684,2.148-1.684h1.197v-0.291c0-0.731-0.419-0.964-0.999-0.964c-0.674,0-1.244,0.174-1.708,0.383l-0.383-1.081
		c0.568-0.244,1.348-0.464,2.242-0.464c1.613,0,2.311,0.744,2.311,2.195v3.612H118.529z M118.101,37.849h-0.941
		c-0.627,0-0.917,0.302-0.917,0.732c0,0.522,0.278,0.836,0.848,0.836c0.359,0,0.731-0.163,1.011-0.384V37.849z"/>
	<path fill="#FFFFFF" d="M120.748,38.697h1.533v1.73c0,0.976-0.558,1.382-1.533,1.487v-0.79c0.209-0.046,0.36-0.243,0.36-0.79
		l-0.36-0.173V38.697z"/>
	<path fill="#FFFFFF" d="M70.456,51.396c-2.207,0-3.393-1.464-3.393-4.078c0-2.439,1.174-3.995,3.393-3.995
		c1.067,0,2.032,0.231,2.671,0.662l-0.581,1.231c-0.406-0.313-1.115-0.546-1.928-0.546c-1.301,0-1.951,0.918-1.951,2.638
		c0,1.812,0.65,2.741,1.928,2.741c0.767,0,1.533-0.325,2.068-0.72l0.487,1.232C72.372,51.094,71.489,51.396,70.456,51.396"/>
	<path fill="#FFFFFF" d="M78.888,48.422c0,1.94-0.975,2.974-2.671,2.974c-1.708,0-2.672-1.023-2.672-2.974
		c0-1.672,0.93-2.95,2.672-2.95C77.935,45.472,78.888,46.75,78.888,48.422 M77.331,48.422c0-1.371-0.406-1.847-1.114-1.847
		c-0.709,0-1.104,0.488-1.104,1.847c0,1.325,0.36,1.859,1.104,1.859S77.331,49.781,77.331,48.422"/>
	<path fill="#FFFFFF" d="M83.558,51.279V47.9c0-0.86-0.325-1.266-1.023-1.266c-0.395,0-0.73,0.173-0.998,0.348v4.297h-1.521v-5.691
		h1.045l0.232,0.65c0.325-0.383,0.952-0.766,1.8-0.766c1.441,0,2.01,0.847,2.01,2.288v3.519H83.558z"/>
	<path fill="#FFFFFF" d="M91.455,48.422c0,1.94-0.976,2.974-2.671,2.974c-1.707,0-2.672-1.023-2.672-2.974
		c0-1.672,0.93-2.95,2.672-2.95C90.504,45.472,91.455,46.75,91.455,48.422 M89.899,48.422c0-1.371-0.406-1.847-1.115-1.847
		s-1.104,0.488-1.104,1.847c0,1.325,0.359,1.859,1.104,1.859C89.526,50.281,89.899,49.781,89.899,48.422"/>
	<path fill="#FFFFFF" d="M97.124,50.896c-0.325,0.175-1.092,0.499-1.952,0.499c-1.695,0-2.718-0.963-2.718-2.962
		c0-1.858,1.022-2.961,2.706-2.961c0.756,0,1.406,0.151,1.953,0.464l-0.396,1.035c-0.406-0.244-0.93-0.349-1.429-0.349
		c-0.79,0-1.29,0.534-1.29,1.812c0,1.29,0.477,1.812,1.301,1.812c0.593,0,1.174-0.221,1.545-0.43L97.124,50.896z"/>
	<path fill="#FFFFFF" d="M98.599,51.279v-4.6l-0.662-0.138v-0.953h2.172v5.691H98.599z M98.553,43.265h1.533v1.382h-1.533V43.265z"
		/>
	<path fill="#FFFFFF" d="M106.521,47.76v3.519h-1.534V47.9c0-0.86-0.313-1.266-1.022-1.266c-0.394,0-0.696,0.173-0.963,0.348v4.297
		h-1.521v-5.691h1.022l0.255,0.661c0.325-0.395,0.883-0.777,1.685-0.777c0.93,0,1.487,0.278,1.777,0.801
		c0.337-0.407,0.929-0.801,1.719-0.801c1.626,0,2.103,0.847,2.103,2.288v3.519h-1.545V47.9c0-0.86-0.36-1.266-1.068-1.266
		c-0.372,0-0.709,0.173-0.964,0.348C106.509,47.214,106.521,47.481,106.521,47.76"/>
	<path fill="#FFFFFF" d="M111.735,51.279v-4.6l-0.662-0.138v-0.953h2.172v5.691H111.735z M111.688,43.265h1.535v1.382h-1.535V43.265
		z"/>
	<path fill="#FFFFFF" d="M115.929,48.84c0,0.906,0.511,1.405,1.463,1.405c0.581,0,1.174-0.22,1.673-0.476l0.29,1.069
		c-0.477,0.255-1.254,0.557-2.149,0.557c-1.753,0-2.798-1.091-2.798-2.974c0-1.753,0.848-2.95,2.671-2.95
		c1.719,0,2.393,1.277,2.393,2.707v0.662H115.929z M116.997,46.587c-0.754,0-1.068,0.685-1.068,1.359h2.079
		C118.008,47.214,117.787,46.587,116.997,46.587"/>
	<path fill="#FFFFFF" d="M124.151,51.279V47.9c0-0.86-0.325-1.266-1.021-1.266c-0.396,0-0.732,0.173-1,0.348v4.297h-1.521v-5.691
		h1.046l0.231,0.65c0.325-0.383,0.953-0.766,1.802-0.766c1.441,0,2.009,0.847,2.009,2.288v3.519H124.151z"/>
	<path fill="#FFFFFF" d="M129.041,51.396c-1.01,0-1.672-0.477-1.672-1.905v-2.822h-0.848v-1.081h0.848V44.6l1.498-0.488v1.476h1.521
		v1.081h-1.521v2.787c0,0.396,0.197,0.651,0.604,0.651c0.313,0,0.64-0.093,0.871-0.209l0.232,1.116
		C130.238,51.21,129.646,51.396,129.041,51.396"/>
	<path fill="#FFFFFF" d="M136.371,48.422c0,1.94-0.977,2.974-2.671,2.974c-1.708,0-2.672-1.023-2.672-2.974
		c0-1.672,0.929-2.95,2.672-2.95C135.419,45.472,136.371,46.75,136.371,48.422 M134.814,48.422c0-1.371-0.406-1.847-1.114-1.847
		c-0.71,0-1.104,0.488-1.104,1.847c0,1.325,0.36,1.859,1.104,1.859C134.442,50.281,134.814,49.781,134.814,48.422"/>
	<path fill="#FFFFFF" d="M68.539,59.785c0,0.906,0.511,1.405,1.464,1.405c0.58,0,1.173-0.221,1.672-0.476l0.291,1.069
		c-0.477,0.255-1.255,0.557-2.149,0.557c-1.754,0-2.799-1.092-2.799-2.974c0-1.753,0.848-2.95,2.671-2.95
		c1.72,0,2.393,1.278,2.393,2.707v0.662H68.539z M69.607,57.532c-0.755,0-1.068,0.685-1.068,1.359h2.079
		C70.618,58.159,70.397,57.532,69.607,57.532"/>
	<rect x="76.041" y="54.384" fill="#FFFFFF" width="1.521" height="7.841"/>
	<path fill="#FFFFFF" d="M82.721,62.224v-3.379c0-0.86-0.326-1.266-1.022-1.266c-0.395,0-0.731,0.173-0.998,0.348v4.297h-1.522
		v-5.691h1.046l0.232,0.65c0.325-0.384,0.952-0.767,1.8-0.767c1.44,0,2.01,0.848,2.01,2.288v3.52H82.721z"/>
	<path fill="#FFFFFF" d="M89.04,62.224v-3.379c0-0.86-0.325-1.266-1.022-1.266c-0.396,0-0.732,0.173-0.999,0.348v4.297h-1.522
		v-5.691h1.046l0.232,0.65c0.325-0.384,0.952-0.767,1.8-0.767c1.44,0,2.01,0.848,2.01,2.288v3.52H89.04z"/>
	<path fill="#FFFFFF" d="M96.938,59.367c0,1.94-0.976,2.974-2.671,2.974c-1.708,0-2.673-1.022-2.673-2.974
		c0-1.672,0.93-2.95,2.673-2.95C95.984,56.417,96.938,57.695,96.938,59.367 M95.382,59.367c0-1.371-0.407-1.846-1.115-1.846
		c-0.709,0-1.105,0.488-1.105,1.846c0,1.325,0.361,1.859,1.105,1.859C95.009,61.226,95.382,60.726,95.382,59.367"/>
	<polygon fill="#FFFFFF" points="101.398,62.224 99.18,62.224 97.472,56.533 99.18,56.533 100.376,61.307 100.422,61.307 
		101.606,56.533 103.14,56.533 	"/>
	<path fill="#FFFFFF" d="M107.414,62.224l-0.208-0.673c-0.291,0.395-0.861,0.79-1.662,0.79c-1.138,0-1.904-0.731-1.904-1.823
		c0-1.057,0.778-1.684,2.147-1.684h1.197v-0.291c0-0.731-0.418-0.963-0.998-0.963c-0.675,0-1.243,0.174-1.709,0.383l-0.383-1.08
		c0.569-0.244,1.348-0.465,2.242-0.465c1.614,0,2.312,0.744,2.312,2.196v3.611H107.414z M106.984,59.739h-0.941
		c-0.627,0-0.916,0.302-0.916,0.732c0,0.522,0.277,0.836,0.847,0.836c0.361,0,0.732-0.163,1.011-0.384V59.739z"/>
	<path fill="#FFFFFF" d="M114.302,61.842c-0.325,0.174-1.091,0.499-1.95,0.499c-1.696,0-2.719-0.964-2.719-2.962
		c0-1.858,1.022-2.962,2.706-2.962c0.755,0,1.405,0.151,1.951,0.464l-0.395,1.034c-0.407-0.244-0.929-0.348-1.429-0.348
		c-0.789,0-1.29,0.534-1.29,1.812c0,1.29,0.477,1.812,1.302,1.812c0.593,0,1.173-0.221,1.546-0.43L114.302,61.842z"/>
	<path fill="#FFFFFF" d="M115.776,62.224v-4.6l-0.661-0.139v-0.952h2.171v5.691H115.776z M115.73,54.21h1.534v1.383h-1.534V54.21z"
		/>
	<path fill="#FFFFFF" d="M123.78,59.367c0,1.94-0.976,2.974-2.672,2.974c-1.707,0-2.672-1.022-2.672-2.974
		c0-1.672,0.93-2.95,2.672-2.95C122.828,56.417,123.78,57.695,123.78,59.367 M119.702,55.65l-0.149-0.872l2.938-0.824l0.196,1.115
		L119.702,55.65z M122.224,59.367c0-1.371-0.407-1.846-1.115-1.846c-0.709,0-1.104,0.488-1.104,1.846
		c0,1.325,0.36,1.859,1.104,1.859S122.224,60.726,122.224,59.367"/>
	<path fill="#FFFFFF" d="M128.45,62.224v-3.379c0-0.86-0.326-1.266-1.022-1.266c-0.395,0-0.732,0.173-0.999,0.348v4.297h-1.522
		v-5.691h1.046l0.232,0.65c0.325-0.384,0.953-0.767,1.801-0.767c1.44,0,2.009,0.848,2.009,2.288v3.52H128.45z"/>
</g>
</svg>
